HIERARCHY
ROOT Hips
{
 OFFSET 0.000000 0.000000 0.000000
 CHANNELS 6 Xposition Yposition Zposition Yrotation Xrotation Zrotation
 JOINT Chest
 {
  OFFSET 0.000000 9.585900 0.002600
  CHANNELS 3 Yrotation Xrotation Zrotation
  JOINT Chest2
  {
   OFFSET 0.000000 9.601200 -0.005300
   CHANNELS 3 Yrotation Xrotation Zrotation
   JOINT Chest3
   {
    OFFSET 0.000000 9.561800 0.000000
    CHANNELS 3 Yrotation Xrotation Zrotation
    JOINT Chest4
    {
     OFFSET 0.000000 9.552100 0.000000
     CHANNELS 3 Yrotation Xrotation Zrotation
     JOINT Neck
     {
      OFFSET 0.000000 14.453000 0.000000
      CHANNELS 3 Yrotation Xrotation Zrotation
      JOINT Head
      {
       OFFSET 0.000000 8.936500 -0.011300
       CHANNELS 3 Yrotation Xrotation Zrotation
       End Site
       {
        OFFSET 0.000000 17.073600 -0.006000
       }
      }
     }
     JOINT RightCollar
     {
      OFFSET -2.921100 9.558500 0.000000
      CHANNELS 3 Yrotation Xrotation Zrotation
      JOINT RightShoulder
      {
       OFFSET -13.519700 0.000000 0.000000
       CHANNELS 3 Yrotation Xrotation Zrotation
       JOINT RightElbow
       {
        OFFSET 0.000000 -29.696600 0.000000
        CHANNELS 3 Yrotation Xrotation Zrotation
        JOINT RightWrist
        {
         OFFSET 0.000000 -24.004700 0.000000
         CHANNELS 3 Yrotation Xrotation Zrotation
         End Site
         {
          OFFSET 0.000000 -17.728500 0.000000
         }
        }
       }
      }
     }
     JOINT LeftCollar
     {
      OFFSET 2.921100 9.558500 0.000000
      CHANNELS 3 Yrotation Xrotation Zrotation
      JOINT LeftShoulder
      {
       OFFSET 13.519700 0.000000 0.000000
       CHANNELS 3 Yrotation Xrotation Zrotation
       JOINT LeftElbow
       {
        OFFSET 0.000000 -29.696600 0.000000
        CHANNELS 3 Yrotation Xrotation Zrotation
        JOINT LeftWrist
        {
         OFFSET 0.000000 -24.004700 0.000000
         CHANNELS 3 Yrotation Xrotation Zrotation
         End Site
         {
          OFFSET 0.000000 -17.728500 0.000000
         }
        }
       }
      }
     }
    }
   }
  }
 }
 JOINT RightHip
 {
  OFFSET -7.771700 -0.012900 -0.001300
  CHANNELS 3 Yrotation Xrotation Zrotation
  JOINT RightKnee
  {
   OFFSET 0.000000 -40.869800 0.001200
   CHANNELS 3 Yrotation Xrotation Zrotation
   JOINT RightAnkle
   {
    OFFSET 0.000000 -39.717900 0.002100
    CHANNELS 3 Yrotation Xrotation Zrotation
    JOINT RightToe
    {
     OFFSET 0.000000 -4.965400 11.033500
     CHANNELS 3 Yrotation Xrotation Zrotation
     End Site
     {
      OFFSET 0.000000 -1.423100 5.872300
     }
    }
   }
  }
 }
 JOINT LeftHip
 {
  OFFSET 7.771700 -0.012900 -0.001300
  CHANNELS 3 Yrotation Xrotation Zrotation
  JOINT LeftKnee
  {
   OFFSET 0.000000 -40.869800 0.001200
   CHANNELS 3 Yrotation Xrotation Zrotation
   JOINT LeftAnkle
   {
    OFFSET 0.000000 -39.717900 0.002100
    CHANNELS 3 Yrotation Xrotation Zrotation
    JOINT LeftToe
    {
     OFFSET 0.000000 -4.965400 11.033500
     CHANNELS 3 Yrotation Xrotation Zrotation
     End Site
     {
      OFFSET 0.000000 -1.423100 5.872300
     }
    }
   }
  }
 }
}
MOTION
Frames: 9
Frame Time: 0.008333
0.000000 85.388000 0.000000 0.000000 -5.767877 0.000000 0.000000 11.653817 0.000000 0.000000 -5.885947 0.000000 0.000000 -0.000000 0.000000 0.000000 -0.000000 0.000000 0.000000 12.528835 0.000000 0.000000 0.711642 0.000000 0.000000 -0.000000 0.000000 0.000000 0.000000 -90.000000 0.000000 -2.309062 0.000000 0.000000 2.309062 0.000000 0.000000 -0.000000 0.000000 0.000000 -0.000000 90.000000 0.000000 -2.309062 0.000000 0.000000 2.309062 0.000000 0.000000 8.520406 0.000000 0.000000 1.905762 0.000000 -0.000000 -4.658285 0.000000 0.000000 -0.000000 0.000000 0.000000 8.520406 0.000000 0.000000 1.905762 0.000000 -0.000000 -4.658285 0.000000 0.000000 -0.000000 0.000000
-72.356669 55.827599 -36.752493 -174.441089 -12.919102 -0.753381 -0.273555 14.920493 0.266661 -0.036466 1.367871 0.055243 -0.033064 2.271222 0.034320 -0.245759 13.375961 0.349611 3.823567 14.420672 -2.398344 4.624905 -10.491141 -3.434556 -1.911780 0.579663 0.294319 -1.419106 -5.851932 -4.643580 -76.218422 -58.191486 105.636444 -9.832708 15.286366 5.499659 -6.111004 -2.078862 2.404033 3.696956 -9.391344 6.566699 53.858670 -46.360764 -95.146995 11.533319 -3.257196 2.955069 -5.803755 -61.887317 10.133357 -26.050995 85.612209 -30.112082 -10.507808 -17.563281 13.049390 0.027328 -0.041741 0.011608 10.572430 -58.955349 -12.385122 90.858092 70.162502 92.820272 1.808650 -19.390005 -3.906775 0.009723 0.082484 0.011065
-72.355664 55.827682 -36.752232 -174.437678 -12.926993 -0.756359 -0.286427 14.938424 0.286166 -0.032130 1.364028 0.046238 -0.041735 2.283488 0.048012 -0.261898 13.387435 0.362290 3.962249 14.474696 -2.449668 4.790181 -10.427780 -3.525189 -1.876075 0.658074 0.284493 -1.428617 -5.900206 -4.645862 -76.220415 -58.187651 105.626219 -9.886702 15.259910 5.422950 -6.095865 -2.055428 2.366274 3.717096 -9.428715 6.531655 53.844761 -46.188162 -95.098511 11.604304 -3.332282 3.022466 -5.808098 -61.878711 10.136213 -26.061052 85.611898 -30.122919 -10.498098 -17.564032 13.046660 0.041937 -0.037935 0.012180 10.577218 -58.944992 -12.383092 90.848610 70.170554 92.819601 1.805195 -19.394542 -3.912413 0.015771 0.084427 0.014865
-72.356258 55.827699 -36.751570 -174.424910 -12.935561 -0.751802 -0.308736 14.955246 0.296726 -0.029493 1.361558 0.036898 -0.049294 2.294282 0.061838 -0.279444 13.399389 0.372693 4.084251 14.537195 -2.491244 4.934796 -10.355960 -3.601097 -1.842590 0.714178 0.267252 -1.422763 -5.890324 -4.621185 -76.266655 -58.211474 105.650816 -9.900635 15.248341 5.386016 -6.094891 -1.898334 2.335209 3.757791 -9.598601 6.483777 53.819325 -46.025947 -95.043015 11.671066 -3.417075 3.094518 -5.805103 -61.871145 10.114142 -25.956018 85.618915 -30.024288 -10.458064 -17.567188 13.041213 0.000145 -0.043288 0.008278 10.582196 -58.933243 -12.395858 90.837471 70.167834 92.801169 1.801703 -19.396106 -3.901399 0.009797 0.085815 0.011254
-72.357331 55.827644 -36.750451 -174.421897 -12.943697 -0.742527 -0.338077 14.975767 0.318027 -0.019362 1.359372 0.020259 -0.052098 2.299371 0.063792 -0.294670 13.411293 0.383537 4.190842 14.608178 -2.523652 5.060285 -10.275815 -3.663195 -1.809816 0.768349 0.249051 -1.424800 -5.940509 -4.624835 -76.197518 -58.194572 105.561597 -9.895787 15.239607 5.365793 -6.084296 -1.801412 2.302405 3.790044 -9.684928 6.415903 53.781200 -45.905922 -94.987742 11.741354 -3.519604 3.165449 -5.784094 -61.866538 10.090296 -25.957393 85.620229 -30.021701 -10.479629 -17.564411 13.038384 0.001005 -0.039482 0.011453 10.601005 -58.921980 -12.414614 90.829970 70.166006 92.791072 1.796763 -19.396026 -3.896156 0.009295 0.084809 0.009587
-72.356977 55.828000 -36.750926 -174.419569 -12.962168 -0.743405 -0.353057 14.999221 0.331355 -0.034315 1.371013 0.041015 -0.041314 2.296811 0.048727 -0.297504 13.410536 0.377013 4.276403 14.698717 -2.527149 5.167832 -10.187122 -3.711983 -1.793310 0.794871 0.239713 -1.408022 -5.914085 -4.604066 -76.213205 -58.213839 105.554814 -9.905614 15.252231 5.342007 -6.075801 -1.767612 2.285778 3.810069 -9.697976 6.359957 53.722029 -45.778210 -94.925747 11.819722 -3.636101 3.232771 -5.767278 -61.851395 10.071835 -25.938513 85.621445 -29.993064 -10.482580 -17.560108 13.036089 -0.012469 -0.042774 0.009512 10.621283 -58.899810 -12.420200 90.817707 70.173484 92.788930 1.790572 -19.399231 -3.896413 0.011953 0.085160 0.012894
-72.357232 55.828138 -36.749995 -174.420561 -12.973286 -0.740077 -0.366251 15.014765 0.340035 -0.035710 1.373801 0.042164 -0.059565 2.314069 0.070490 -0.288581 13.398910 0.352187 4.347837 14.797053 -2.524808 5.256048 -10.088876 -3.747221 -1.771044 0.878948 0.245367 -1.396896 -5.949579 -4.600799 -76.286542 -58.246100 105.616230 -9.943650 15.303281 5.300725 -6.064936 -1.665056 2.268742 3.831731 -9.747046 6.260064 53.648414 -45.688766 -94.861117 11.909880 -3.759236 3.298304 -5.752869 -61.841880 10.061550 -25.969222 85.618636 -30.018494 -10.510559 -17.558606 13.040221 0.026835 -0.035183 0.010864 10.632394 -58.886738 -12.425852 90.817562 70.174538 92.789406 1.791580 -19.403452 -3.900193 0.008370 0.087105 0.018050
-72.357406 55.828299 -36.748451 -174.422046 -12.980952 -0.737646 -0.377716 15.026342 0.349198 -0.036760 1.376258 0.043021 -0.061296 2.318052 0.071968 -0.300617 13.411880 0.364575 4.407803 14.893958 -2.537143 5.322101 -9.980655 -3.768508 -1.746259 0.951496 0.234383 -1.382831 -5.985750 -4.599551 -76.109398 -58.237853 105.429479 -9.892303 15.254254 5.321394 -6.041672 -1.576498 2.233060 3.838153 -9.826707 6.215544 53.567027 -45.514660 -94.797757 12.011177 -3.879248 3.359830 -5.746052 -61.834782 10.053946 -25.959013 85.617837 -30.010385 -10.498853 -17.561926 13.044945 0.032583 -0.031371 0.005804 10.642755 -58.877263 -12.430056 90.817694 70.175933 92.788410 1.790928 -19.407727 -3.897197 0.006925 0.088001 0.015796
-72.358065 55.828738 -36.747224 -174.425520 -12.990839 -0.732698 -0.384217 15.039294 0.355277 -0.037423 1.378694 0.043686 -0.062456 2.321960 0.073168 -0.317193 13.423311 0.373746 4.455413 15.001239 -2.541965 5.364171 -9.863997 -3.776407 -1.724672 1.007062 0.222707 -1.366035 -6.002890 -4.597015 -76.016842 -58.234602 105.330155 -9.865818 15.247214 5.325175 -6.016631 -1.509222 2.200966 3.836621 -9.880987 6.179656 53.479595 -45.306022 -94.740420 12.119209 -3.992054 3.414814 -5.734434 -61.825358 10.037427 -25.882869 85.619691 -29.941569 -10.446979 -17.570011 13.040162 0.009028 -0.031254 0.003285 10.657721 -58.863171 -12.434737 90.807502 70.181235 92.775451 1.790273 -19.411576 -3.894150 0.005656 0.089784 0.015768
